# Blender 4.3.0
# www.blender.org
mtllib mainbuild.mtl
o the_mainbuild
v -32.949257 0.000000 -6.000000
v 35.000000 0.000000 -6.000000
v -32.949257 0.000000 -52.000000
v 35.000000 0.000000 -52.000000
v 35.174149 29.788174 -6.071339
v 35.174149 0.000000 -6.071339
v 35.174149 29.788174 5.928661
v 35.174149 0.000000 5.928661
v -32.825851 29.788174 -6.071339
v -32.825851 0.000000 -6.071339
v -32.825851 29.788174 5.928661
v -32.825851 0.000000 5.928661
v 35.000000 29.788174 -64.000000
v 35.000000 0.000000 -64.000000
v 35.000000 29.788174 -52.000000
v 35.000000 0.000000 -52.000000
v -33.000000 29.788174 -64.000000
v -33.000000 0.000000 -64.000000
v -33.000000 29.788174 -52.000000
v -33.000000 0.000000 -52.000000
v 81.510445 88.788177 -90.063965
v 81.510445 88.788162 30.760593
v 81.510445 128.788177 -90.063965
v 81.510445 128.788162 30.760593
v -56.278156 88.788177 -90.063965
v -56.278156 88.788162 30.760593
v -56.278156 128.788177 -90.063965
v -56.278156 128.788162 30.760593
v 47.174145 87.788170 -6.500000
v 47.174145 63.788170 -6.500000
v 47.174145 87.788170 6.500000
v 47.174145 63.788170 6.500000
v -33.000000 87.788170 -6.500000
v -33.000000 63.788170 -6.500000
v -33.000000 87.788170 6.500000
v -33.000000 63.788170 6.500000
v 47.174156 88.788170 -64.500000
v 47.174156 63.788170 -64.500000
v 47.174156 88.788170 -51.500000
v 47.174156 63.788170 -51.500000
v -33.000000 88.788170 -64.500000
v -33.000000 63.788170 -64.500000
v -33.000000 88.549522 -51.500000
v -33.000000 63.788170 -51.500000
v 47.174152 63.788174 -64.071342
v 47.174152 39.788174 -64.071342
v 47.174152 63.788174 -52.071342
v 47.174152 39.788174 -52.071342
v -33.000000 63.788174 -64.071342
v -33.000000 39.788174 -64.071342
v -33.000000 63.788174 -52.071342
v -33.000000 39.788174 -52.071342
v 47.174149 63.788174 -6.000000
v 47.174149 39.788174 -6.000000
v 47.174149 63.788174 6.000000
v 47.174149 39.788174 6.000000
v -33.000000 63.788174 -6.000000
v -33.000000 39.788174 -6.000000
v -33.000000 63.788174 6.000000
v -33.000000 39.788174 6.000000
v 71.435020 29.788183 -83.018707
v 71.435020 29.788172 23.823399
v 71.435020 39.788185 -83.018707
v 71.435020 39.788170 23.823399
v -50.304111 29.788183 -83.018707
v -50.304111 29.788172 23.823399
v -50.304111 39.788185 -83.018707
v -50.304111 39.788170 23.823399
v 35.000004 29.788174 -64.000000
v 35.000004 0.000000 -64.000000
v 47.000004 29.788174 -64.000000
v 47.000004 0.000000 -64.000000
v 34.999996 29.788174 6.000000
v 34.999996 0.000000 6.000000
v 46.999996 29.788174 6.000000
v 46.999996 0.000000 6.000000
v 3.000002 88.021469 -51.500000
v 3.000002 39.554878 -51.500000
v 15.000001 88.021469 -51.500000
v 15.000001 39.554878 -51.500000
v 2.999998 88.021469 -6.500000
v 2.999998 39.554878 -6.500000
v 14.999998 88.021469 -6.500000
v 14.999998 39.554878 -6.500000
vn -0.0000 1.0000 -0.0000
vn -0.0000 -0.0000 1.0000
vn -1.0000 -0.0000 -0.0000
vn -0.0000 -1.0000 -0.0000
vn 1.0000 -0.0000 -0.0000
vn -0.0000 -0.0000 -1.0000
vn -0.0015 1.0000 0.0092
vt 0.596630 0.727238
vt 0.596630 0.586499
vt 0.691907 0.586499
vt 0.691907 0.727238
vt 0.971296 0.747684
vt 0.971296 0.888528
vt 0.946441 0.888528
vt 0.946441 0.747684
vt 0.773946 0.727344
vt 0.712247 0.727344
vt 0.712247 0.586499
vt 0.773946 0.586499
vt 0.699820 0.564001
vt 0.699820 0.502303
vt 0.724675 0.502303
vt 0.724675 0.564001
vt 0.563491 0.782820
vt 0.563491 0.923664
vt 0.538636 0.923664
vt 0.538636 0.782820
vt 0.745015 0.564001
vt 0.745015 0.502303
vt 0.769870 0.502303
vt 0.769870 0.564001
vt 0.555139 0.762480
vt 0.493441 0.762480
vt 0.493441 0.621636
vt 0.555139 0.621636
vt 0.975738 0.010170
vt 0.975738 0.151014
vt 0.950883 0.151014
vt 0.950883 0.010170
vt 0.819440 0.151014
vt 0.757742 0.151014
vt 0.757742 0.010170
vt 0.819440 0.010170
vt 0.790210 0.564001
vt 0.790210 0.502303
vt 0.815065 0.502303
vt 0.815065 0.564001
vt 0.971296 0.586499
vt 0.971296 0.727344
vt 0.946441 0.727344
vt 0.946441 0.586499
vt 0.835405 0.564001
vt 0.835405 0.502303
vt 0.860260 0.502303
vt 0.860260 0.564001
vt 0.833639 0.456747
vt 0.771941 0.456747
vt 0.771941 0.315903
vt 0.833639 0.315903
vt 0.576290 0.315903
vt 0.576290 0.601296
vt 0.493441 0.601296
vt 0.493441 0.315903
vt 0.280766 0.010170
vt 0.531023 0.010170
vt 0.531023 0.295563
vt 0.280766 0.295563
vt 0.679480 0.315903
vt 0.679480 0.566159
vt 0.596631 0.566159
vt 0.596631 0.315903
vt 0.634212 0.010170
vt 0.634212 0.295563
vt 0.551363 0.295563
vt 0.551363 0.010170
vt 0.654552 0.260426
vt 0.654552 0.010170
vt 0.737402 0.010170
vt 0.737402 0.260426
vt 0.010170 0.010170
vt 0.260426 0.010170
vt 0.260426 0.295563
vt 0.010170 0.295563
vt 0.264188 0.753720
vt 0.264188 0.919780
vt 0.237262 0.919780
vt 0.237262 0.753720
vt 0.889490 0.176230
vt 0.839781 0.176230
vt 0.839781 0.010170
vt 0.889490 0.010170
vt 0.946441 0.958578
vt 0.946441 0.908868
vt 0.973367 0.908868
vt 0.973367 0.958578
vt 0.739174 0.747684
vt 0.739174 0.913743
vt 0.712248 0.913743
vt 0.712248 0.747684
vt 0.596630 0.983688
vt 0.596630 0.933978
vt 0.623557 0.933978
vt 0.623557 0.983688
vt 0.903689 0.481963
vt 0.853980 0.481963
vt 0.853980 0.315903
vt 0.903689 0.315903
vt 0.623557 0.747579
vt 0.623557 0.913638
vt 0.596631 0.913638
vt 0.596631 0.747579
vt 0.699820 0.315903
vt 0.751601 0.315903
vt 0.751107 0.481963
vt 0.699820 0.481963
vt 0.100560 0.947300
vt 0.100560 0.896014
vt 0.127486 0.895519
vt 0.127486 0.947300
vt 0.670823 0.747579
vt 0.670823 0.913638
vt 0.643897 0.913638
vt 0.643897 0.747579
vt 0.147826 0.947300
vt 0.147826 0.895519
vt 0.174752 0.895519
vt 0.174752 0.947300
vt 0.453120 0.754453
vt 0.401339 0.754453
vt 0.401339 0.588394
vt 0.453120 0.588394
vt 0.819141 0.772899
vt 0.819141 0.938959
vt 0.794286 0.938959
vt 0.794286 0.772899
vt 0.843996 0.752559
vt 0.794286 0.752559
vt 0.794286 0.586499
vt 0.843996 0.586499
vt 0.643897 0.983688
vt 0.643897 0.933978
vt 0.668752 0.933978
vt 0.668752 0.983688
vt 0.309383 0.753721
vt 0.309383 0.919780
vt 0.284528 0.919780
vt 0.284528 0.753721
vt 0.712248 0.983793
vt 0.712248 0.934083
vt 0.737102 0.934083
vt 0.737102 0.983793
vt 0.059880 0.875179
vt 0.010170 0.875179
vt 0.010170 0.709120
vt 0.059880 0.709120
vt 0.426193 0.774794
vt 0.426193 0.940853
vt 0.401339 0.940853
vt 0.401339 0.774794
vt 0.129930 0.875179
vt 0.080220 0.875179
vt 0.080220 0.709120
vt 0.129930 0.709120
vt 0.237262 0.989830
vt 0.237262 0.940120
vt 0.262116 0.940120
vt 0.262116 0.989830
vt 0.354578 0.753721
vt 0.354578 0.919780
vt 0.329723 0.919780
vt 0.329723 0.753721
vt 0.329723 0.989830
vt 0.329723 0.940120
vt 0.354578 0.940120
vt 0.354578 0.989830
vt 0.199979 0.875179
vt 0.150270 0.875179
vt 0.150270 0.709120
vt 0.199979 0.709120
vt 0.885048 0.586499
vt 0.885048 0.838650
vt 0.864336 0.838650
vt 0.864336 0.586499
vt 0.251806 0.315903
vt 0.473101 0.315903
vt 0.473101 0.568054
vt 0.251806 0.568054
vt 0.909830 0.231465
vt 0.909830 0.010170
vt 0.930543 0.010170
vt 0.930543 0.231465
vt 0.926101 0.586499
vt 0.926101 0.838650
vt 0.905388 0.838650
vt 0.905388 0.586499
vt 0.924030 0.537198
vt 0.924029 0.315903
vt 0.944742 0.315903
vt 0.944742 0.537198
vt 0.010170 0.315903
vt 0.231465 0.315903
vt 0.231465 0.568054
vt 0.010170 0.568054
vt 0.518296 0.782820
vt 0.518296 0.927807
vt 0.493441 0.927807
vt 0.493441 0.782820
vt 0.298960 0.733380
vt 0.237262 0.733380
vt 0.237262 0.588394
vt 0.298960 0.588394
vt 0.010170 0.957218
vt 0.010170 0.895519
vt 0.035025 0.895519
vt 0.035025 0.957218
vt 0.471388 0.774794
vt 0.471388 0.919780
vt 0.446534 0.919780
vt 0.446534 0.774794
vt 0.055365 0.957218
vt 0.055365 0.895519
vt 0.080220 0.895519
vt 0.080220 0.957218
vt 0.380998 0.733380
vt 0.319300 0.733380
vt 0.319300 0.588394
vt 0.380999 0.588394
vt 0.975738 0.171354
vt 0.975738 0.264560
vt 0.950883 0.264560
vt 0.950883 0.171354
vt 0.010170 0.688780
vt 0.010170 0.588394
vt 0.103376 0.588394
vt 0.103376 0.688780
vt 0.757742 0.271740
vt 0.757742 0.171354
vt 0.782597 0.171354
vt 0.782597 0.271740
vt 0.864635 0.196570
vt 0.864635 0.289775
vt 0.839781 0.289775
vt 0.839781 0.196570
vt 0.864336 0.959376
vt 0.864336 0.858990
vt 0.889191 0.858990
vt 0.889191 0.959376
vt 0.123716 0.688780
vt 0.123716 0.588394
vt 0.216921 0.588394
vt 0.216921 0.688780
s 0
usemtl Material.001
f 1/1/1 2/2/1 4/3/1 3/4/1
f 5/5/1 9/6/1 11/7/1 7/8/1
f 8/9/2 7/10/2 11/11/2 12/12/2
f 12/13/3 11/14/3 9/15/3 10/16/3
f 10/17/4 6/18/4 8/19/4 12/20/4
f 6/21/5 5/22/5 7/23/5 8/24/5
f 10/25/6 9/26/6 5/27/6 6/28/6
usemtl Material.002
f 13/29/1 17/30/1 19/31/1 15/32/1
f 16/33/2 15/34/2 19/35/2 20/36/2
f 20/37/3 19/38/3 17/39/3 18/40/3
f 18/41/4 14/42/4 16/43/4 20/44/4
f 14/45/5 13/46/5 15/47/5 16/48/5
f 18/49/6 17/50/6 13/51/6 14/52/6
usemtl Material.003
f 21/53/6 25/54/6 27/55/6 23/56/6
f 24/57/1 23/58/1 27/59/1 28/60/1
f 28/61/3 27/62/3 25/63/3 26/64/3
f 26/65/2 22/66/2 24/67/2 28/68/2
f 22/69/5 21/70/5 23/71/5 24/72/5
f 26/73/4 25/74/4 21/75/4 22/76/4
usemtl Material.004
f 29/77/1 33/78/1 35/79/1 31/80/1
f 32/81/2 31/82/2 35/83/2 36/84/2
f 36/85/3 35/86/3 33/87/3 34/88/3
f 34/89/4 30/90/4 32/91/4 36/92/4
f 30/93/5 29/94/5 31/95/5 32/96/5
f 34/97/6 33/98/6 29/99/6 30/100/6
usemtl Material.005
f 37/101/7 41/102/7 43/103/7 39/104/7
f 40/105/2 39/106/2 43/107/2 44/108/2
f 44/109/3 43/110/3 41/111/3 42/112/3
f 42/113/4 38/114/4 40/115/4 44/116/4
f 38/117/5 37/118/5 39/119/5 40/120/5
f 42/121/6 41/122/6 37/123/6 38/124/6
usemtl Material.006
f 45/125/1 49/126/1 51/127/1 47/128/1
f 48/129/2 47/130/2 51/131/2 52/132/2
f 52/133/3 51/134/3 49/135/3 50/136/3
f 50/137/4 46/138/4 48/139/4 52/140/4
f 46/141/5 45/142/5 47/143/5 48/144/5
f 50/145/6 49/146/6 45/147/6 46/148/6
usemtl Material.007
f 53/149/1 57/150/1 59/151/1 55/152/1
f 56/153/2 55/154/2 59/155/2 60/156/2
f 60/157/3 59/158/3 57/159/3 58/160/3
f 58/161/4 54/162/4 56/163/4 60/164/4
f 54/165/5 53/166/5 55/167/5 56/168/5
f 58/169/6 57/170/6 53/171/6 54/172/6
usemtl Material.008
f 61/173/6 65/174/6 67/175/6 63/176/6
f 64/177/1 63/178/1 67/179/1 68/180/1
f 68/181/3 67/182/3 65/183/3 66/184/3
f 66/185/2 62/186/2 64/187/2 68/188/2
f 62/189/5 61/190/5 63/191/5 64/192/5
f 66/193/4 65/194/4 61/195/4 62/196/4
usemtl Material.009
f 69/197/1 73/198/1 75/199/1 71/200/1
f 72/201/5 71/202/5 75/203/5 76/204/5
f 76/205/2 75/206/2 73/207/2 74/208/2
f 74/209/4 70/210/4 72/211/4 76/212/4
f 70/213/6 69/214/6 71/215/6 72/216/6
f 74/217/3 73/218/3 69/219/3 70/220/3
usemtl Material.010
f 77/221/1 81/222/1 83/223/1 79/224/1
f 80/225/5 79/226/5 83/227/5 84/228/5
f 84/229/2 83/230/2 81/231/2 82/232/2
f 82/233/4 78/234/4 80/235/4 84/236/4
f 78/237/6 77/238/6 79/239/6 80/240/6
f 82/241/3 81/242/3 77/243/3 78/244/3
