# Blender 4.3.0
# www.blender.org
mtllib maquina.mtl
o maquina_pagamento
v 0.837462 0.018578 -0.517899
v 0.837462 0.018578 0.517899
v -0.837462 0.018578 0.517899
v -0.837462 0.018578 -0.517900
v 0.837463 3.270394 -0.517899
v 0.837462 3.270394 0.517900
v -0.837462 3.270394 0.517899
v -0.837462 3.270394 -0.517899
v 0.837462 0.357309 -0.517899
v 0.837462 0.632708 -0.517899
v 0.837462 0.357309 0.517900
v 0.837462 0.632708 0.517900
v -0.837462 0.357309 0.517899
v -0.837462 0.632708 0.517899
v -0.837462 0.357309 -0.517900
v -0.837462 0.632708 -0.517900
v 0.418731 0.018578 -0.517899
v 0.418731 0.018578 0.517899
v 0.418731 3.270394 -0.517899
v 0.418731 3.270394 0.517900
v 0.418731 0.357309 0.517899
v 0.418731 0.632708 0.517900
v 0.418731 0.632708 -0.517899
v 0.418731 0.357309 -0.517899
v 0.083496 0.018578 -0.517899
v 0.083496 0.018578 0.590593
v 0.083496 3.270394 -0.517899
v 0.083495 3.270394 0.590593
v 0.127763 0.412198 0.590593
v 0.127763 0.580726 0.590593
v 0.083496 0.632708 -0.517899
v 0.083496 0.357309 -0.517899
v -0.429039 0.018578 -0.517900
v -0.429039 0.018578 0.590593
v -0.429039 3.270394 -0.517899
v -0.429039 3.270394 0.590593
v -0.483313 0.407670 0.590593
v -0.483313 0.582347 0.590593
v -0.429039 0.632708 -0.517899
v -0.429039 0.357309 -0.517900
v 0.083496 0.357309 0.201605
v 0.083496 0.632708 0.201605
v -0.429039 0.357309 0.201605
v -0.429039 0.632708 0.201605
v -0.172771 0.018578 -0.517900
v -0.172771 0.018578 0.636853
v -0.172771 3.270394 -0.517899
v -0.172772 3.270394 0.636853
v -0.177775 0.409934 0.636853
v -0.177775 0.581536 0.636853
v -0.172771 0.632708 -0.517899
v -0.172771 0.357309 -0.517900
v -0.172771 0.357309 0.201605
v -0.172772 0.632708 0.201605
v -0.300905 0.018578 -0.517900
v -0.300905 0.018578 0.624736
v -0.300905 3.270394 -0.517899
v -0.300906 3.270394 0.624737
v -0.330544 0.408802 0.624736
v -0.330544 0.581942 0.624737
v -0.300905 0.632708 -0.517899
v -0.300905 0.357309 -0.517900
v -0.300905 0.357309 0.201605
v -0.300905 0.632708 0.201605
v -0.044638 0.018578 -0.517899
v -0.044638 0.018578 0.619230
v -0.044638 3.270394 -0.517899
v -0.044638 3.270394 0.619230
v -0.025006 0.411066 0.619230
v -0.025006 0.581131 0.619230
v -0.044638 0.632708 -0.517899
v -0.044638 0.357309 -0.517899
v -0.044638 0.357309 0.201605
v -0.044638 0.632708 0.201605
v 0.494730 2.438767 0.537543
v 0.494730 2.438767 0.500070
v 0.775378 2.438767 0.500070
v 0.775378 2.438767 0.537543
v 0.494730 2.570923 0.537543
v 0.494730 2.570923 0.500070
v 0.775378 2.570923 0.500070
v 0.775378 2.570923 0.537543
v 0.494730 2.264663 0.537543
v 0.494730 2.264663 0.500070
v 0.775378 2.264663 0.500070
v 0.775378 2.264663 0.537543
v 0.494730 2.396818 0.537543
v 0.494730 2.396818 0.500070
v 0.775378 2.396818 0.500070
v 0.775378 2.396818 0.537543
v 0.494730 2.088710 0.537543
v 0.494730 2.088710 0.500070
v 0.775378 2.088710 0.500070
v 0.775378 2.088710 0.537543
v 0.494730 2.220865 0.537543
v 0.494730 2.220865 0.500070
v 0.775378 2.220865 0.500070
v 0.775378 2.220865 0.537543
v 0.494730 1.926167 0.537543
v 0.494730 1.926167 0.500070
v 0.775378 1.926167 0.500070
v 0.775378 1.926167 0.537543
v 0.494730 2.058322 0.537543
v 0.494730 2.058322 0.500070
v 0.775378 2.058322 0.500070
v 0.775378 2.058322 0.537543
v 0.494730 1.752062 0.537543
v 0.494730 1.752062 0.500070
v 0.775378 1.752062 0.500070
v 0.775378 1.752062 0.537543
v 0.494730 1.884218 0.537543
v 0.494730 1.884218 0.500070
v 0.775378 1.884218 0.500070
v 0.775378 1.884218 0.537543
v 0.494730 1.576109 0.537543
v 0.494730 1.576109 0.500070
v 0.775378 1.576109 0.500070
v 0.775378 1.576109 0.537543
v 0.494730 1.708264 0.537543
v 0.494730 1.708264 0.500070
v 0.775378 1.708264 0.500070
v 0.775378 1.708264 0.537543
v 0.556637 0.764674 0.537543
v 0.556637 0.764674 0.500070
v 0.713471 0.764674 0.500070
v 0.713471 0.764674 0.537543
v 0.556637 0.896829 0.537543
v 0.556637 0.896829 0.500070
v 0.713471 0.896829 0.500070
v 0.713471 0.896829 0.537543
v 0.567108 0.773497 0.537543
v 0.703000 0.773497 0.537543
v 0.567108 0.888006 0.537543
v 0.703000 0.888006 0.537543
v 0.567108 0.773497 0.522662
v 0.703000 0.773497 0.522662
v 0.567108 0.888006 0.522662
v 0.703000 0.888006 0.522662
v 0.574936 0.780093 0.522662
v 0.695172 0.780093 0.522662
v 0.574936 0.881409 0.522662
v 0.695172 0.881409 0.522662
v 0.570111 0.781163 0.536286
v 0.701747 0.781163 0.536286
v 0.570111 0.888808 0.536286
v 0.701747 0.888808 0.536286
vn -0.0000 -1.0000 -0.0000
vn -0.0000 1.0000 -0.0000
vn 1.0000 -0.0000 -0.0000
vn -0.1872 0.0019 0.9823
vn -1.0000 -0.0000 -0.0000
vn -0.0000 -0.0000 -1.0000
vn -0.1864 -0.0139 0.9824
vn -0.2011 -0.0000 0.9796
vn -0.0000 -0.0000 1.0000
vn 0.2260 0.0019 0.9741
vn 0.2250 -0.0136 0.9743
vn 0.2424 -0.0000 0.9702
vn -0.2362 0.0037 0.9717
vn -0.2360 -0.0254 0.9714
vn 0.9904 -0.0000 0.1382
vn 0.0134 -0.9924 -0.1222
vn -0.0175 0.9911 -0.1321
vn -0.9936 -0.0000 0.1131
vn 0.1245 0.0003 0.9922
vn 0.1245 -0.0023 0.9922
vn -0.0089 -0.9928 -0.1195
vn 0.0012 0.9927 -0.1204
vn -0.0859 0.0006 0.9963
vn -0.0859 -0.0038 0.9963
vn 0.0036 -0.9930 -0.1178
vn 0.0110 0.9923 -0.1233
vn -0.0118 0.9923 -0.1236
vn 0.1998 0.0024 0.9798
vn 0.1998 -0.0162 0.9797
vn -0.0143 -0.9919 -0.1262
vn -0.0000 -0.9969 0.0782
vn -0.0000 0.8788 -0.4772
vn 0.9006 -0.0000 -0.4346
vn -0.9427 -0.0000 -0.3338
s 0
usemtl Material
f 33//1 34//1 3//1 4//1
f 35//2 8//2 7//2 36//2
f 10//3 5//3 6//3 12//3
f 38//4 36//4 7//4 14//4
f 14//5 7//5 8//5 16//5
f 40//6 33//6 4//6 15//6
f 1//3 9//3 11//3 2//3
f 9//3 10//3 12//3 11//3
f 34//7 37//7 13//7 3//7
f 37//8 38//8 14//8 13//8
f 3//5 13//5 15//5 4//5
f 13//5 14//5 16//5 15//5
f 35//6 39//6 16//6 8//6
f 39//6 40//6 15//6 16//6
f 1//1 2//1 18//1 17//1
f 5//2 19//2 20//2 6//2
f 12//9 6//9 20//9 22//9
f 9//6 1//6 17//6 24//6
f 2//9 11//9 21//9 18//9
f 11//9 12//9 22//9 21//9
f 5//6 10//6 23//6 19//6
f 10//6 9//6 24//6 23//6
f 17//1 18//1 26//1 25//1
f 19//2 27//2 28//2 20//2
f 22//10 20//10 28//10 30//10
f 24//6 17//6 25//6 32//6
f 18//11 21//11 29//11 26//11
f 21//12 22//12 30//12 29//12
f 19//6 23//6 31//6 27//6
f 23//6 24//6 32//6 31//6
f 55//1 56//1 34//1 33//1
f 57//2 35//2 36//2 58//2
f 60//13 58//13 36//13 38//13
f 62//6 55//6 33//6 40//6
f 56//14 59//14 37//14 34//14
f 38//15 37//15 43//15 44//15
f 57//6 61//6 39//6 35//6
f 61//6 62//6 40//6 39//6
f 63//9 64//9 44//9 43//9
f 60//16 38//16 44//16 64//16
f 69//17 29//17 41//17 73//17
f 29//18 30//18 42//18 41//18
f 65//1 66//1 46//1 45//1
f 67//2 47//2 48//2 68//2
f 70//19 68//19 48//19 50//19
f 72//6 65//6 45//6 52//6
f 66//20 69//20 49//20 46//20
f 67//6 71//6 51//6 47//6
f 71//6 72//6 52//6 51//6
f 73//9 74//9 54//9 53//9
f 70//21 50//21 54//21 74//21
f 59//22 49//22 53//22 63//22
f 45//1 46//1 56//1 55//1
f 47//2 57//2 58//2 48//2
f 50//23 48//23 58//23 60//23
f 52//6 45//6 55//6 62//6
f 46//24 49//24 59//24 56//24
f 47//6 51//6 61//6 57//6
f 51//6 52//6 62//6 61//6
f 53//9 54//9 64//9 63//9
f 50//25 60//25 64//25 54//25
f 37//26 59//26 63//26 43//26
f 49//27 69//27 73//27 53//27
f 25//1 26//1 66//1 65//1
f 27//2 67//2 68//2 28//2
f 30//28 28//28 68//28 70//28
f 32//6 25//6 65//6 72//6
f 26//29 29//29 69//29 66//29
f 27//6 31//6 71//6 67//6
f 31//6 32//6 72//6 71//6
f 41//9 42//9 74//9 73//9
f 30//30 70//30 74//30 42//30
f 79//5 80//5 76//5 75//5
f 80//6 81//6 77//6 76//6
f 81//3 82//3 78//3 77//3
f 82//9 79//9 75//9 78//9
f 75//1 76//1 77//1 78//1
f 82//2 81//2 80//2 79//2
f 87//5 88//5 84//5 83//5
f 88//6 89//6 85//6 84//6
f 89//3 90//3 86//3 85//3
f 90//9 87//9 83//9 86//9
f 83//1 84//1 85//1 86//1
f 90//2 89//2 88//2 87//2
f 95//5 96//5 92//5 91//5
f 96//6 97//6 93//6 92//6
f 97//3 98//3 94//3 93//3
f 98//9 95//9 91//9 94//9
f 91//1 92//1 93//1 94//1
f 98//2 97//2 96//2 95//2
f 103//5 104//5 100//5 99//5
f 104//6 105//6 101//6 100//6
f 105//3 106//3 102//3 101//3
f 106//9 103//9 99//9 102//9
f 99//1 100//1 101//1 102//1
f 106//2 105//2 104//2 103//2
f 111//5 112//5 108//5 107//5
f 112//6 113//6 109//6 108//6
f 113//3 114//3 110//3 109//3
f 114//9 111//9 107//9 110//9
f 107//1 108//1 109//1 110//1
f 114//2 113//2 112//2 111//2
f 119//5 120//5 116//5 115//5
f 120//6 121//6 117//6 116//6
f 121//3 122//3 118//3 117//3
f 122//9 119//9 115//9 118//9
f 115//1 116//1 117//1 118//1
f 122//2 121//2 120//2 119//2
f 127//5 128//5 124//5 123//5
f 128//6 129//6 125//6 124//6
f 129//3 130//3 126//3 125//3
f 123//9 126//9 132//9 131//9
f 123//1 124//1 125//1 126//1
f 130//2 129//2 128//2 127//2
f 131//2 132//2 136//2 135//2
f 130//9 127//9 133//9 134//9
f 126//9 130//9 134//9 132//9
f 127//9 123//9 131//9 133//9
f 135//9 136//9 140//9 139//9
f 134//1 133//1 137//1 138//1
f 132//5 134//5 138//5 136//5
f 133//3 131//3 135//3 137//3
f 139//31 140//31 144//31 143//31
f 138//9 137//9 141//9 142//9
f 136//9 138//9 142//9 140//9
f 137//9 135//9 139//9 141//9
f 146//9 145//9 143//9 144//9
f 142//32 141//32 145//32 146//32
f 140//33 142//33 146//33 144//33
f 141//34 139//34 143//34 145//34
